<?xml version="1.0" encoding="UTF-8"?>
<svg id="uuid-f696a2bf-9577-4a00-b8ad-24f635b985b6" data-name="Layer 7" xmlns="http://www.w3.org/2000/svg" viewBox="0 0 1106.41 401.53">
  <defs>
    <style>
      .uuid-ca931092-113a-4833-87f4-1586845c4f00 {
        stroke-width: 0px;
      }
    </style>
  </defs>
<path class="uuid-ca931092-113a-4833-87f4-1586845c4f00" d="m1106.37,89.71c-.03-12.9-4.27-25.78-18.47-28.48-6.43-1.22-12.65-.44-17.95,1.95,0-3.25-.02-6.49-.08-9.74-.14-7.18-1.54-14.69-5.61-20.74-5.8-8.61-15.92-12.67-26.15-12.14-6.55.34-12.42,2.77-17.23,6.59-1.9-9.51-6.05-18.04-15.08-23.12-6.27-3.53-14.32-4.82-21.4-3.54-8.19,1.48-14.45,7.85-18.07,15.05-1.07,2.14-2.01,4.36-2.84,6.64-3.66-3.93-8.43-6.77-14.37-7.84-7.01-1.26-14.38-1.26-20.94,1.78-7.42,3.44-12.29,10.33-15.11,17.81-3.76,9.96-3.2,20.73-3.2,31.19v112.3c-3.33-2.52-6.92-4.67-10.93-6.23-21.25-8.25-49.1,7.67-52.06,30.56-1.22,9.44,3.73,15.13,9.94,21.09,5.21,5,10.35,10.07,15.49,15.13,14.19,13.98,28.31,28.03,42.43,42.09,8.55,8.52,17.1,17.04,25.63,25.58v85.39c0,4.05,3.44,7.5,7.5,7.5h121.5c4.07,0,7.48-3.44,7.5-7.5.15-26.41.29-52.82.44-79.23.01-2.45.03-4.91.04-7.36,9.55-7.26,17-18.02,22.27-28.5,4.32-8.59,6.75-17.11,6.75-26.69v-48.48c0-37.02.09-74.03,0-111.05Zm-15.81,168.61c-2.25,8.56-7.02,16.61-12.3,23.65-2.44,3.26-5.2,6.35-8.22,9.08-3.27,2.96-7.31,4.45-7.68,9.5-.51,7.07-.08,14.33-.12,21.41l-.34,61.58h-106.54v-50.99c0-9.42.19-18.87,0-28.29-.12-5.77-3.63-8.45-7.41-12.23-17.42-17.4-34.86-34.79-52.36-52.12-8.26-8.19-16.53-16.38-24.87-24.48-2.26-2.19-4.53-4.36-6.81-6.52-4.8-4.53-.68-11.53,2.98-15.72,3.82-4.37,9.8-7.58,15.13-8.87,9.63-2.33,18.02,3.55,24.54,10.02,1.67,1.66,5.43,5.45,5.68,5.65,10.39,10.34,20.81,20.65,31.82,30.35,2.64,2.33,5.84,2.71,8.97,1.22.83-.29,1.64-.61,2.48-.87,3.33-1.03,5.77-1.47,8.75-1.61,10.14-.47,19.22,3.61,26.32,10.78,8.22,8.3,14.19,19.83,11.03,31.66-.93,3.51-2.47,6.48-4.44,9.57-.19.29-.39.58-.59.86-.1.13-.42.55-.55.71-.31.37-.63.73-.96,1.07-6.78,6.88,3.82,17.49,10.61,10.61,5.21-5.29,8.99-12.7,10.66-19.87,3.81-16.31-2.91-32.11-14-44.02-12.97-13.92-33.38-20.18-51.42-14.09-4.73-4.27-9.36-8.65-13.96-13.05-4.07-3.9-8.09-7.85-12.08-11.83V56.04c0-9.41,1.1-26.06,13.4-27.48,4.26-.49,8.99.26,11.44,1.52,1.77.91,8.71,3.95,8.71,20.8-.07,2.24-.05,24.18-.05,31.23v73.92c0,9.65,15,9.67,15,0v-68.86c0-11.37.45-22.93.03-34.8.2-8.27.84-15.92,3.16-24.03,4.19-14.68,13.07-13.43,15.93-13.14-.97-.09,1.71.32,2.26.46,2.21.57,2.13.54,3.48,1.33,5.33,3.13,7.93,10.46,8.76,17.85.96,8.59.38,17.52.38,26.16v94.04c0,9.65,15,9.67,15,0V57.28c0-16.41,6.3-20.97,15.74-21.72,7-.55,13.04,2.53,15.22,8.52,1.57,4.32,1.54,6.74,1.54,11.43,0,8.98,0,60.88,0,74.02v26.5c0,9.65,15,9.67,15,0v-72.19c0-5.97,7.51-9.11,14.04-8.14,6.67.99,7.42,6.38,7.46,12.83.05,7.72,0,15.44,0,23.16v123.97c0,7.26,1.06,15.59-.81,22.67Z"/>
</svg>