<?xml version="1.0" encoding="UTF-8"?>
<svg id="uuid-f696a2bf-9577-4a00-b8ad-24f635b985b6" data-name="Layer 7" xmlns="http://www.w3.org/2000/svg" viewBox="0 0 1106.41 401.53">
<defs>
    <style>
      .uuid-ca931092-113a-4833-87f4-1586845c4f00 {
        stroke-width: 0px;
      }
    </style>
  </defs>
<path class="uuid-ca931092-113a-4833-87f4-1586845c4f00" d="m637.4,210.66v-76.23c0-8.31-.05-17.51-5.05-24.57-6.82-9.62-22.15-11.78-32.71-7.95-2.06.75-3.86,1.73-5.46,2.87-.18-.3-.36-.6-.56-.89-4.16-6.11-10.56-10.19-17.69-11.96-9.08-2.25-18.27-1.43-25.89,4.32-1.08.81-2.12,1.7-3.11,2.64-2.23-4.12-5.3-7.75-9.41-10.53-10.36-7.01-26.4-6.86-36.39.7-2.83,2.14-5.17,4.74-7.06,7.64-1.53-1.47-3.31-2.79-5.42-3.94-10.19-5.57-24.74-6.6-34.29.66-9.99,7.59-12.62,19.45-12.62,31.33v28.5c-13.95,4.34-21.56,19.75-25.17,33.08-3.85,14.2-5.03,29.57-.11,43.62,6.61,18.87,18.98,34.88,31.6,50.1,7.07,8.53,14.41,16.87,22.02,24.94v88.04c0,4.05,3.44,7.5,7.5,7.5h120.5c4.1,0,7.43-3.44,7.5-7.5.44-27.06.87-54.13,1.31-81.19.04-2.55.08-5.1.12-7.66,16.45-11.93,30.21-31.82,30.4-52.44.13-13.69,0-27.38,0-41.07Zm-32.58-94.19c4.02-2.66,11.89-1.49,14.64,1.22,4.8,4.72,2.94,18.19,2.94,25.54v18.31c-.04.32-.08.64-.08.99-.18,7.79-6.42,10.1-13.64,9.46-8.09-.71-10.08-8.2-10.11-15.21,0-.02,0-.04,0-.06-.05-8.28-2.46-34.48,6.25-40.24Zm-46.18-8.05c3.82-2.97,8.21-3.17,12.78-2.14,3.92.88,7.66,2.63,9.86,6.13,3.47,5.52,2.12,13.44,2.12,19.62v18.64c0,4.43.6,9.01-1.4,13.1-4.11,8.44-12.57,8.64-20.81,7.8-.35-.04-.46-.03-.48-.02-.08-.03-.26-.09-.71-.21-.58-.16-2.44-.73-2.14-.6-.87-.37-1.76-.86-2.91-2.35-2.16-2.8-2.87-8.05-3.1-12.65.15-12.14.36-24.31-.09-36.4.27-4,3.68-8.43,6.89-10.91Zm-45.04-9.23c11.65-4.03,21.03,3.58,22.77,14.79.21,1.33.36,23.67.36,31.01v8.21c-3.69-1.27-7.65-1.64-11.86-1.7-7.38-.1-14.76-.26-22.14-.38v-24.98c0-18.02,2.49-24.04,10.87-26.94Zm-43.79,4.18c4.54-.06,9.89.78,13.52,3.76,4.59,3.78,4.41,10.15,4.41,15.52v28.26c-.92,0-1.84-.02-2.77-.03-9.32-.05-18.84-.28-28.23.31v-24.73c0-9.07,1-22.93,13.07-23.1Zm152.59,146.58c0,12.14-5.95,23.81-14.01,32.91-2.68,3.02-5.61,5.9-8.85,8.33-3.53,2.65-7.12,4.21-7.47,9.14-.13,1.82-.06,3.69-.09,5.51-.15,9.49-.31,18.98-.46,28.48-.28,17.07-.55,34.14-.83,51.22h-105.62v-80.07c0-3.58-.01-6.22-2.64-9.2-10.55-11.99-21.52-23.51-31.3-36.18-11.82-15.3-24.52-33.59-22.83-53.83.7-8.38,2.38-17.36,5.97-25.2,1.8-3.93,4.04-7.95,7.31-10.85,1.32-1.17,2.73-2.1,4.4-2.66.68-.23,1.37-.33,2.07-.48.26-.05.44-.09.57-.12.05,0,.19,0,.47-.04,16.97-1.81,34.31-1.11,51.35-.85,7.7.12,15.4.3,23.11.42,2.59.04,5.58-.33,8.03.57,4.01,1.47,6.25,5.83,7.39,9.68,3.14,10.59-1.63,21.89-10.24,28.55-7.02,5.43-16.67,3.76-25.01,3.76h-48.14c-9.65,0-9.67,15,0,15h39.52c11.4,5.41,23.07,13.66,29.88,24.26,5.58,8.68,6.9,19.51,3.71,29.33-1.7,5.23-3.92,8.74-7.25,11.6-7.32,6.32,3.33,16.89,10.61,10.61,15.37-13.26,16.73-39.15,7.67-56.07-4.03-7.53-10.06-14.28-17-19.99,1.52-.21,3.02-.52,4.47-.98,15.08-4.79,27.22-21.31,27.84-37.23.21.06.42.12.63.18,11.91,2.96,26.06,1.31,34.62-7.88,4.18,5.22,10.31,8.69,18.4,9.14,4.98.28,9.65-.47,13.72-2.14v65.09Z"/>
</svg>