<?xml version="1.0" encoding="UTF-8"?>
<svg id="uuid-f696a2bf-9577-4a00-b8ad-24f635b985b6" data-name="Layer 7" xmlns="http://www.w3.org/2000/svg" viewBox="0 0 1106.41 401.53">
<defs>
    <style>
      .uuid-ca931092-113a-4833-87f4-1586845c4f00 {
        stroke-width: 0px;
      }
    </style>
  </defs>
    <path class="uuid-ca931092-113a-4833-87f4-1586845c4f00" d="m225.2,137.24c-.02-4.77.22-9.72-.6-14.44-2.7-15.46-19.17-20.4-32.84-18.66-3.96.5-7.58,1.66-10.72,3.38-.53-.99-1.16-1.97-1.9-2.94-5.21-6.79-13.37-9.98-21.68-10.83-5.67-.58-11.1.45-15.85,2.75.29-20.43.49-40.87.44-61.3-.02-6.54-.21-13.11-2.92-19.19-3.19-7.16-9.64-11.67-17.23-13.24-8.81-1.82-18.49-1.74-26.56,2.59-8.79,4.72-13.99,13.61-15.02,23.35-.83,7.86-.81,15.87-1.06,23.76-.29,9.16-.54,18.33-.77,27.49-1.91-11.14-3.88-22.26-6-33.35-2.65-13.86-9.19-26.89-24.61-28.44-14.1-1.42-29.18,5.07-33.52,19.31-3.24,10.64-.32,22.13,1.45,32.8,1.9,11.46,3.83,22.92,5.76,34.38,2.86,16.96,5.74,33.91,8.63,50.86-6.37,1.62-11.67,5.17-15.86,10.99-4.85,6.74-8.17,14.81-10.77,22.64-6.27,18.92-4.16,36.98,5.21,54.53,7.97,14.93,19.84,27.94,30.7,40.8,6.33,7.49,12.73,14.93,19.19,22.31v87.22c0,4.05,3.44,7.5,7.5,7.5h122c4.03,0,7.54-3.44,7.5-7.5-.24-26.44-.49-52.89-.73-79.33-.02-2.61-.05-5.22-.07-7.83,15.5-12.11,28.86-29.62,29.35-49.87.32-13.52.39-27.04.52-40.56.18-17.46.32-34.93.4-52.39.02-.33.05-.65.06-.99,0-.37-.01-.72-.04-1.06,0-.86.01-1.71.02-2.57.03-7.4.05-14.8.02-22.19Zm-32.81-18.13c5.76-1.08,15.9-.93,17.5,6.36,1.37,6.27.33,13.82.32,20.18,0,6-.02,12-.04,18-.18,2.46-1.14,4.68-4.01,6.17-4.34,2.25-11.09,2.23-15.59.42-3.24-1.31-5.73-4.79-6.19-6.34-.13-.45-.45-2.82-.45-3.38v-33.53c.47-4.25,3.05-6.86,8.46-7.88Zm-49.1-5.15c1.83-2.57,5.03-5.01,8.78-5.39,4.97-.51,11.42.72,14.85,4.67,2.3,2.64,2.01,4.94,2.01,8.29v30.28c0,7.86,1.38,16.17-7.33,20.18-7.19,3.31-20.07-.8-21.11-9.27.26-15.06.54-30.13.79-45.19.16-.34.37-.79.44-.92.49-.89.98-1.8,1.57-2.64ZM95.3,28.94c1.14-7.35,7.79-12.34,15.68-12.23,4.83.07,11.05.12,13.75,4.07,2.8,4.08,2.3,9.68,2.31,14.43.06,24.38-.4,48.77-.74,73.15-.03,2.44-.53,35.17-.73,48.06-.29-.12-.58-.24-.88-.35-4.98-1.82-10.22-1.54-15.42-1.54h-17.47c.73-39.31,1.27-78.67,3.05-117.95.11-2.33.2-6.02.45-7.64Zm-66.12,11.45c2.09-4.95,7.39-6.57,12.34-7.17,4.52-.55,8.61-.27,11.19,2.71,3.44,3.99,4.45,10.09,5.39,15.13,3.7,19.85,6.85,39.81,10.17,59.72,2.43,14.58,4.84,29.16,7.24,43.75h-5.26c-8.33,0-16.76-.29-25.13-.21-5.63-32.78-11.62-65.53-16.55-98.42-.74-4.94-1.4-10.75.61-15.51Zm180.13,211.78c-.14,8.98-1.33,15.52-6.28,23.83-4.77,8-11.31,14.7-18.77,20.23-3.76,2.78-4.43,5.5-4.39,9.63.08,8.89.16,17.78.24,26.67.17,18,.33,36.01.5,54.01h-106.93v-77.65c0-3.88.32-6.8-2.21-10.17-7.74-10.28-17.06-19.64-25.33-29.52-12.64-15.12-27.14-31.05-30.93-51.02-2.01-10.58,1.04-21.37,5.07-31.12,1.83-4.41,3.99-9.21,7.01-12.96,2.95-3.67,6.72-4.52,11.22-4.61,14.57-.3,29.19.04,43.76.04h24.17c5.56,0,12.01-1.06,16.71,2.55,8.96,6.89,6.21,20.66-1.07,27.57-6.27,5.95-14.32,9.1-22.81,10.6-3.08.54-31.26,1.29-40.52,1.29h-16.07c-9.65,0-9.67,15,0,15h33.19c3.79,0,7.65-.03,11.51-.19.51.23,1.02.45,1.52.69,2.7,1.27,5.33,2.67,7.9,4.19,6.64,3.91,13.27,8.71,17.76,15.07,5.56,7.89,5.97,17.68,3.34,26.76-1.1,3.79-2.67,7.33-4.66,10.74-.74,1.26-1.54,2.47-2.35,3.69-.19.29-.31.47-.4.6-2.22,3.12-2.5,7.15.38,10.09,2.6,2.66,8.07,3.14,10.61,0,12.57-15.56,18.06-39.62,7.28-57.51-4.26-7.07-10.36-13.05-17.28-17.98,4.32-1.36,8.49-3.18,12.41-5.66,11.23-7.11,19.5-18.65,19.89-31.61,3.71,1.28,7.74,2.03,11.85,2.28,8.3.5,15.92-3.1,21.16-8.92,3.18,3.02,7.12,5.28,11.56,6.44,7.23,1.9,15.09,1.54,21.7-1.06-.1,12.61-.22,25.22-.36,37.83-.11,10.06-.22,20.12-.38,30.18Zm-121.92-25.83s.02,0,.03,0c.26.12.37.18-.03,0Zm23.49,61.22c-.12.15-.24.31-.35.47.1-.15.23-.32.35-.47Zm-.42.57c-.17.25-.13.19,0,0h0Z"/>
</svg>